HIERARCHY
ROOT Hips
{
	OFFSET	0.000000	0.000000	0.000000
	CHANNELS 6 Xposition Yposition Zposition Zrotation Xrotation Yrotation
	JOINT LeftHip
	{
		OFFSET	4.740440	-3.195970	-0.322709
		CHANNELS 3 Zrotation Xrotation Yrotation
		JOINT LeftKnee
		{
			OFFSET	-1.605680	-15.592300	1.005510
			CHANNELS 3 Zrotation Xrotation Yrotation
			JOINT LeftAnkle
			{
				OFFSET	-0.632401	-16.421000	-1.413730
				CHANNELS 3 Zrotation Xrotation Yrotation
				End Site
				{
					OFFSET	0.008423	-3.021750	-1.660875
				}
			}
		}
	}
	JOINT RightHip
	{
		OFFSET	-4.740440	-3.195970	-0.322709
		CHANNELS 3 Zrotation Xrotation Yrotation
		JOINT RightKnee
		{
			OFFSET	1.605680	-15.592300	1.005510
			CHANNELS 3 Zrotation Xrotation Yrotation
			JOINT RightAnkle
			{
				OFFSET	0.632401	-16.421000	-1.413730
				CHANNELS 3 Zrotation Xrotation Yrotation
				End Site
				{
					OFFSET	-0.008423	-3.021750	-1.660875
				}
			}
		}
	}
	JOINT Chest
	{
		OFFSET	0.000000	3.468200	0.078401
		CHANNELS 3 Zrotation Xrotation Yrotation
		JOINT LeftCollar
		{
			OFFSET	3.857650	15.070700	-0.011583
			CHANNELS 3 Zrotation Xrotation Yrotation
			JOINT LeftShoulder
			{
				OFFSET	3.979720	-1.940530	-0.165223
				CHANNELS 3 Zrotation Xrotation Yrotation
				JOINT LeftElbow
				{
					OFFSET	0.615844	-10.986600	-0.673886
					CHANNELS 3 Zrotation Xrotation Yrotation
					JOINT LeftWrist
					{
						OFFSET	0.826843	-10.854500	1.034220
						CHANNELS 3 Zrotation Xrotation Yrotation
						End Site
						{
							OFFSET	-1.679080	-8.456540	0.936217
						}
					}
				}
			}
		}
		JOINT RightCollar
		{
			OFFSET	-3.857650	15.070700	-0.011583
			CHANNELS 3 Zrotation Xrotation Yrotation
			JOINT RightShoulder
			{
				OFFSET	-3.979720	-1.940530	-0.165223
				CHANNELS 3 Zrotation Xrotation Yrotation
				JOINT RightElbow
				{
					OFFSET	-0.615845	-10.986600	-0.673886
					CHANNELS 3 Zrotation Xrotation Yrotation
					JOINT RightWrist
					{
						OFFSET	-0.826843	-10.854500	1.034220
						CHANNELS 3 Zrotation Xrotation Yrotation
						End Site
						{
							OFFSET	1.679080	-8.456540	0.936217
						}
					}
				}
			}
		}
		JOINT Neck
		{
			OFFSET	0.000000	15.101400	0.055730
			CHANNELS 3 Zrotation Xrotation Yrotation
			JOINT Head
			{
				OFFSET	0.000000	4.185120	1.488260
				CHANNELS 3 Zrotation Xrotation Yrotation
				End Site
				{
					OFFSET	0.000000	7.773420	-0.106016
				}
			}
		}
	}
}
MOTION
Frames:     13
Frame Time: 0.016667
-7.639487	34.301842	-10.369282	9.867493	-6.041306	17.645815	18.462738	12.677575	-3.802647	-6.030082	25.707197	17.429037	-14.965025	-7.431051	4.849350	-30.206535	-26.944075	-12.944525	17.604231	47.208885	-19.165855	2.751321	-9.007741	-1.733762	-0.588578	16.888708	-5.468591	-7.053080	-1.044104	-0.383857	-4.119331	-19.077063	-10.693168	34.803421	-135.104233	22.360151	18.324135	-20.154152	1.245194	-13.203275	-7.698817	7.202930	4.473032	-26.094095	5.664777	-38.081829	-128.609161	-29.087221	-9.055620	-22.436234	4.068257	-12.555772	-3.371357	1.952140	3.165193	-9.400072	-6.684107	
-7.382854	34.157448	-10.826648	9.706295	-6.654376	17.450281	18.535849	13.110351	-4.480726	-6.758145	26.089396	20.606474	-17.535675	-11.153060	2.057642	-31.043541	-28.112797	-13.201865	17.625034	48.427608	-19.128735	3.407792	-8.363405	-1.736022	-0.202830	17.930283	-6.154294	-7.318865	0.071293	-0.865958	-4.905409	-18.864351	-12.011995	36.115635	-136.350693	24.730728	19.358219	-21.632002	1.115340	-12.362195	-7.534377	7.690918	6.285339	-24.919146	6.566472	-37.513859	-129.984604	-28.009680	-10.840402	-22.745333	2.978628	-12.298882	-3.923342	1.908864	3.311075	-10.082505	-5.853465	
-7.339712	33.974403	-11.276583	9.655713	-6.882867	17.368610	18.576633	12.843884	-4.871363	-7.282426	26.590740	22.470650	-20.495502	-14.480107	0.486724	-31.267790	-28.459328	-13.203954	17.577173	48.710041	-19.074833	3.498593	-8.232252	-2.021091	-0.122693	18.250799	-6.423004	-7.238726	0.406435	-1.058665	-4.583627	-18.888760	-12.154050	36.406376	-136.694244	25.560823	19.560163	-21.899834	1.265125	-11.389123	-6.829535	7.811891	6.261803	-24.944338	7.101009	-36.968845	-130.429138	-27.657793	-11.103929	-22.805862	2.786476	-12.066874	-4.166219	1.725119	3.366542	-10.248443	-5.354386	
-7.058679	33.905151	-11.807575	9.557743	-7.570206	17.058004	18.841002	13.446149	-4.111260	-8.524651	26.502575	23.359863	-22.339590	-17.728584	-0.800668	-31.762398	-29.543751	-12.873397	17.527519	49.305508	-18.986305	3.861492	-7.367718	-2.578946	-0.164178	18.877266	-7.371459	-6.272790	1.366464	-1.462147	-3.534002	-19.109514	-12.648597	36.689037	-136.798660	26.227175	19.513094	-22.058687	1.784311	-9.967622	-6.051898	8.892265	7.487434	-23.729059	7.594719	-35.478981	-131.601074	-26.709545	-11.657777	-22.982460	2.120478	-11.056748	-4.653019	1.410815	3.308114	-10.519654	-3.839602	
-7.056603	33.855698	-12.109125	9.567067	-7.762951	16.872828	19.046972	13.666764	-2.926164	-8.708400	26.556705	22.768934	-24.249554	-20.556116	-1.685511	-31.923389	-29.983482	-12.665630	17.503839	49.436230	-18.967710	3.729923	-7.300575	-3.214735	-0.181051	19.063753	-7.173736	-5.919749	1.608604	-1.991782	-3.112584	-19.293030	-12.699759	36.785820	-136.656738	26.247522	19.565088	-22.088863	1.752283	-9.433858	-5.554298	8.734334	7.686948	-23.510925	7.772429	-35.057129	-131.898209	-26.421455	-11.694545	-23.048971	2.019562	-10.715983	-4.656397	1.061646	3.114393	-10.674207	-3.542035	
-6.838833	34.049488	-12.568426	9.679678	-8.196579	16.235163	18.954611	14.352223	-0.703362	-9.216000	26.601263	24.220224	-25.807198	-21.938704	-4.969820	-32.583210	-31.353607	-12.131049	17.471960	49.569584	-18.962893	3.872892	-6.295773	-3.599292	-0.344646	19.345736	-7.110956	-4.744283	2.124973	-2.858259	-1.884847	-20.269756	-11.631511	37.941833	-136.698746	27.395357	19.578974	-22.061996	1.493820	-8.050458	-4.122888	8.608891	8.591828	-22.805944	8.455523	-34.078941	-132.500870	-25.409004	-11.459196	-23.368906	2.348593	-9.204591	-5.028663	1.038835	1.957190	-10.635739	-3.064539	
-6.503193	34.199139	-13.032041	9.774817	-8.340912	15.982831	19.140856	14.257488	0.886110	-11.112753	26.852964	23.679037	-24.585295	-23.188612	-5.507466	-32.877972	-31.772121	-11.909641	17.603437	49.513306	-19.026808	3.542029	-6.785388	-4.049326	-0.397073	19.516907	-7.083557	-4.341523	2.219862	-3.135674	-1.391837	-20.770340	-10.987986	38.388187	-136.907074	27.895220	19.564610	-22.000715	1.623271	-7.726814	-3.755516	8.502709	8.918632	-22.626379	8.660829	-33.884045	-132.603500	-25.171982	-11.397621	-23.465380	2.550885	-8.041170	-5.339499	0.876822	0.869363	-10.444596	-2.688147	
-6.307335	34.117027	-13.507958	10.234454	-8.684052	15.012090	19.550421	13.941887	1.593182	-14.554758	28.030272	22.802261	-22.053469	-24.822170	-3.803207	-33.978851	-33.135387	-11.076018	18.445581	49.260998	-19.888132	3.389505	-6.599747	-4.218494	-0.569090	20.476377	-7.590502	-3.416245	1.759352	-3.303727	0.996226	-22.295424	-8.707997	38.815491	-137.980438	28.519112	19.601658	-21.877943	2.174734	-7.100953	-3.407244	8.714445	9.853346	-22.270615	9.067719	-33.884842	-132.682556	-25.084238	-11.380788	-23.675673	3.041228	-7.518839	-5.717743	1.560601	0.284483	-10.953033	-2.243304	
-6.120955	33.945961	-13.835861	10.449765	-8.770049	14.586125	20.167566	12.899484	1.320000	-17.819235	29.750277	22.840799	-20.059755	-26.371672	-2.184477	-34.294456	-33.623985	-10.681198	18.661076	49.098785	-20.354256	3.417890	-7.445333	-4.327973	-0.537790	20.901373	-7.904427	-3.316842	1.465837	-3.209607	2.048942	-22.886946	-7.820895	38.656666	-138.409546	28.348055	19.589897	-21.903349	2.274287	-7.112895	-3.531765	8.922290	10.091782	-22.162407	9.162768	-33.996418	-132.637527	-25.190241	-11.422917	-23.721239	3.148073	-7.561845	-5.773223	1.785088	0.178268	-11.281625	-1.865507	
-5.917757	33.843586	-14.357707	10.763638	-9.001787	13.208656	19.857555	12.260395	1.655462	-20.295160	31.110418	24.618525	-19.001226	-27.344069	-1.948123	-35.045341	-34.681133	-9.934890	19.222126	48.031193	-20.968870	3.508991	-6.883649	-3.928342	-0.658303	21.314106	-7.180802	-1.879036	1.532093	-4.697187	4.615180	-25.012907	-4.735529	37.974064	-139.509979	27.118166	19.543467	-21.939011	2.330999	-7.155949	-3.304602	8.055302	10.692079	-21.709455	9.585480	-34.480167	-132.171402	-25.754454	-11.543692	-23.791304	3.443489	-7.186175	-6.131944	1.038133	-0.433728	-10.441593	-0.551804	
-5.694073	33.871880	-14.751716	10.763290	-9.009712	12.735091	19.906519	11.843979	2.597072	-21.767145	31.620228	25.178236	-17.958651	-27.914984	-2.128059	-35.331463	-34.980858	-9.847170	19.420465	47.607487	-20.897268	3.654958	-6.863718	-4.023359	0.064998	21.453972	-7.774587	-1.531553	1.183270	-5.067526	5.259308	-25.624083	-3.085842	37.738247	-139.862427	26.672022	19.567442	-21.908678	2.475621	-7.804915	-3.589898	8.284740	10.755322	-21.613800	9.662379	-34.712826	-131.912689	-26.066322	-11.563163	-23.782513	3.545463	-7.380558	-6.757142	1.430923	-0.900717	-9.769446	-0.169290	
-5.437306	33.930912	-15.175479	10.820691	-8.730360	11.469405	19.339230	11.598917	3.881189	-23.078728	31.568117	25.843729	-16.643982	-28.375319	-1.844266	-36.612606	-35.877254	-10.044527	19.725136	46.111923	-20.617668	4.277648	-6.235148	-3.922495	0.286615	21.415545	-7.513133	-1.088433	0.393681	-5.456801	9.113933	-27.321236	-0.094014	36.628407	-140.937561	25.118893	19.731354	-21.664444	3.465278	-7.891527	-4.040682	7.516294	10.493426	-21.723722	9.343580	-36.395199	-131.137787	-27.940372	-11.545696	-23.850691	4.190168	-6.794253	-6.910996	1.109735	-2.017483	-8.888445	0.994164	
-5.176043	33.959534	-15.395297	10.887853	-8.543834	11.131038	18.874191	11.206683	3.834791	-24.170898	31.544621	26.238335	-15.369628	-29.038445	-0.958500	-37.166756	-36.145473	-10.236284	19.697660	45.563236	-20.615889	4.563502	-5.849894	-3.650270	0.598610	21.481508	-7.962029	-0.285840	-0.565431	-5.997924	10.013812	-27.419090	1.804496	36.157387	-141.221481	24.591515	19.767681	-21.546255	3.903654	-8.028504	-4.403691	7.603063	10.187789	-22.123791	8.304897	-37.906582	-131.230133	-29.824787	-11.478502	-23.947712	4.490085	-6.603031	-6.766719	0.933648	-2.548862	-9.075408	1.880524	
